<?xml version="1.0" encoding="iso-8859-1"?>
<!-- Uploaded to: SVG Repo, www.svgrepo.com, Generator: SVG Repo Mixer Tools -->
<svg height="800px" width="800px" version="1.1" id="Layer_1" xmlns="http://www.w3.org/2000/svg"
	 viewBox="0 0 392.436 392.436" xml:space="preserve">
<polygon style="fill:red;" points="149.543,370.909 249.616,370.909 199.515,214.465 "/>
<g>
	<!-- inner to outer, left -->

	<!-- inner to outer, left -->

	<path style="fill:white;" d="M213.737,186.925c18.683-6.4,32.129-24.113,32.129-44.994c0-26.246-21.333-47.58-47.58-47.58
		s-47.58,21.333-47.58,47.58c0,21.721,14.545,39.952,34.457,45.64l-60.962,190.642c-2.457,6.206,2.78,14.222,10.343,14.222H264.42
		c7.499,0,12.606-7.24,10.343-14.222L213.737,186.925z M172.558,141.996c0-14.222,11.507-25.794,25.794-25.794
		c14.287,0,25.794,11.507,25.794,25.794c0,14.287-11.507,25.794-25.794,25.794C184.065,167.79,172.558,156.283,172.558,141.996z
		 M149.608,370.78l6.012-18.747h26.828c6.012,0,10.925-4.848,10.925-10.925c0-6.012-4.848-10.925-10.925-10.925h-19.846
		l6.982-21.786h34.715c6.012,0,10.925-4.848,10.925-10.925c0-6.012-4.848-10.925-10.925-10.925h-27.733l23.079-72.145
		l49.972,156.444H149.608V370.78z"/>
</g>
<circle style="fill:orange;" cx="198.352" cy="141.996" r="25.794"/>
</svg>